<svg version="1.1" viewBox="0.0 0.0 604.7244094488188 604.7244094488188" width="32" height="32" fill="none" stroke="none" stroke-linecap="square" stroke-miterlimit="10" xmlns:xlink="http://www.w3.org/1999/xlink" xmlns="http://www.w3.org/2000/svg"><clipPath id="p.0"><path d="m0 0l604.7244 0l0 604.7244l-604.7244 0l0 -604.7244z" clip-rule="nonzero"/></clipPath><g clip-path="url(#p.0)"><path fill="#000000" fill-opacity="0.0" d="m0 0l604.7244 0l0 604.7244l-604.7244 0z" fill-rule="evenodd"/><path fill="#674ea7" d="m342.54855 247.15224l0 0c0 -59.133606 47.937256 -107.07088 107.07086 -107.07088l0 0c28.396973 0 55.63086 11.280655 75.71054 31.360336c20.079712 20.079681 31.360352 47.31357 31.360352 75.71054l0 0c0 59.13359 -47.937286 107.07085 -107.07089 107.07085l0 0c-59.133606 0 -107.07086 -47.937256 -107.07086 -107.07085z" fill-rule="evenodd"/><path fill="#8e7cc3" d="m10.299212 189.27559l0 0c0 -88.98307 72.13504 -161.1181 161.11812 -161.1181l0 0c42.73117 0 83.712204 16.974894 113.927704 47.190407c30.215515 30.215508 47.1904 71.19653 47.1904 113.927704l0 0c0 88.98308 -72.13504 161.11812 -161.1181 161.11812l0 0c-88.98308 0 -161.11812 -72.13504 -161.11812 -161.11812z" fill-rule="evenodd"/><path fill="#434343" d="m383.58792 455.55643l0 0c0 -47.800903 38.750275 -86.55118 86.55118 -86.55118l0 0c22.954803 0 44.96942 9.118774 61.200928 25.35025c16.231506 16.231506 25.35028 38.246124 25.35028 61.200928l0 0c0 47.800903 -38.750305 86.55118 -86.55121 86.55118l0 0c-47.800903 0 -86.55118 -38.750275 -86.55118 -86.55118z" fill-rule="evenodd"/><path fill="#434343" d="m289.40683 412.70602l0 0c0 -24.135254 19.56549 -43.700775 43.700775 -43.700775l0 0c11.590179 0 22.705627 4.604187 30.901123 12.799652c8.195496 8.195496 12.799683 19.310974 12.799683 30.901123l0 0c0 24.135284 -19.565521 43.700806 -43.700806 43.700806l0 0c-24.135284 0 -43.700775 -19.565521 -43.700775 -43.700806z" fill-rule="evenodd"/><path fill="#000000" d="m295.24146 528.9921l0 0c0 -26.274841 21.299988 -47.5748 47.57483 -47.5748l0 0c12.617615 0 24.718445 5.012329 33.64044 13.934326c8.922028 8.921997 13.934357 21.022858 13.934357 33.640472l0 0c0 26.274841 -21.299957 47.57483 -47.5748 47.57483l0 0c-26.274841 0 -47.57483 -21.299988 -47.57483 -47.57483z" fill-rule="evenodd"/><path fill="#674ea7" d="m246.31758 471.7454l0 0c0 -15.629211 12.669998 -28.299194 28.29921 -28.299194l0 0c7.505432 0 14.70343 2.9815063 20.01056 8.288635c5.3071594 5.307129 8.288666 12.505157 8.288666 20.01056l0 0c0 15.629242 -12.669983 28.299225 -28.299225 28.299225l0 0c-15.629211 0 -28.29921 -12.669983 -28.29921 -28.299225z" fill-rule="evenodd"/><path fill="#8e7cc3" d="m523.2441 357.97375l0 0c0 -19.656128 15.934448 -35.590546 35.590576 -35.590546l0 0c9.439209 0 18.49176 3.7496948 25.16632 10.424225c6.6744995 6.67453 10.424194 15.727112 10.424194 25.16632l0 0c0 19.656128 -15.934387 35.590546 -35.590515 35.590546l0 0c-19.656128 0 -35.590576 -15.934418 -35.590576 -35.590546z" fill-rule="evenodd"/><path fill="#000000" d="m320.33597 98.40945l0 0c0 -28.423096 23.041473 -51.464565 51.46457 -51.464565l0 0c13.649231 0 26.73944 5.422146 36.39093 15.073624c9.651489 9.651478 15.073639 22.741695 15.073639 36.39094l0 0c0 28.423096 -23.041473 51.46456 -51.46457 51.46456l0 0c-28.423096 0 -51.46457 -23.041466 -51.46457 -51.46456z" fill-rule="evenodd"/><path fill="#000000" d="m449.37415 247.61757l-18.134277 9.352585l-50.079163 58.303192l-42.60678 73.296814l-4.5657043 22.550995l17.196259 -9.076355l54.618073 -63.65219l39.314484 -67.17023z" fill-rule="evenodd"/><path fill="#000000" d="m329.79266 416.3727l-7.913391 2.9501343l-27.635193 14.913361l-16.952728 30.34909l-2.989502 8.018372l7.514435 -2.8740234l32.380554 -18.611542l12.67981 -26.341187z" fill-rule="evenodd"/><path fill="#000000" d="m557.46716 358.26187l-24.21637 -4.0248413l-87.39151 15.148804l-89.319824 32.049713l-18.856018 15.319946l23.09488 3.6488037l95.35315 -16.574097l82.12555 -29.198883z" fill-rule="evenodd"/><path fill="#000000" d="m167.61957 184.66441l5.023468 28.925385l54.53186 93.124374l76.05893 88.89218l26.550568 15.519531l-5.023468 -27.513855l-59.55533 -101.591095l-69.602295 -81.83458z" fill-rule="evenodd"/><path fill="#434343" d="m337.67963 527.9161l-3.5761414 -7.651184l-17.084778 -26.349182l-31.61325 -14.461456l-8.232788 -2.3360596l3.4682312 7.259613l21.15216 30.78241l27.275085 10.524048z" fill-rule="evenodd"/><path fill="#434343" d="m374.055 98.87401l-0.10391235 17.108665l23.402954 59.70443l37.194458 59.884552l14.706451 12.05481l-0.052856445 -16.30333l-25.571259 -65.14055l-33.982758 -55.079636z" fill-rule="evenodd"/><path fill="#434343" d="m366.3803 98.107056l-21.704529 -1.0573425l-76.318054 24.82563l-76.88054 41.363808l-15.650925 16.988647l20.686539 0.8253479l83.26778 -27.130966l70.70642 -37.77214z" fill-rule="evenodd"/><path fill="#674ea7" d="m467.67987 450.35165l-15.169617 2.328003l-48.842194 25.271301l-46.62503 35.247406l-8.141602 12.304138l14.429382 -2.328003l53.282837 -27.599274l42.923187 -32.25528z" fill-rule="evenodd"/><path fill="#674ea7" d="m557.596 362.86612l-11.706909 4.5647583l-34.51056 29.178131l-30.952454 36.9151l-4.3038635 11.455475l11.115295 -4.4345703l37.64279 -31.855682l28.529602 -33.826416z" fill-rule="evenodd"/><path fill="#000000" fill-opacity="0.5127" d="m439.88715 455.55643l0 0c0 -16.707703 13.5442505 -30.251953 30.251953 -30.251953l0 0c8.023315 0 15.718048 3.1872253 21.391388 8.860596c5.67334 5.67334 8.860596 13.368042 8.860596 21.391357l0 0c0 16.707703 -13.544281 30.251984 -30.251984 30.251984l0 0c-16.707703 0 -30.251953 -13.544281 -30.251953 -30.251984z" fill-rule="evenodd"/><path fill="#000000" fill-opacity="0.5127" d="m419.36746 247.15224l0 0c0 -16.707703 13.5442505 -30.251968 30.251953 -30.251968l0 0c8.023315 0 15.718048 3.1872406 21.391388 8.860596c5.67334 5.67334 8.860596 13.368042 8.860596 21.391373l0 0c0 16.707687 -13.544281 30.251968 -30.251984 30.251968l0 0c-16.707703 0 -30.251953 -13.544281 -30.251953 -30.251968z" fill-rule="evenodd"/><path fill="#000000" fill-opacity="0.5127" d="m141.16536 189.27559l0 0c0 -16.707703 13.544266 -30.251968 30.251968 -30.251968l0 0c8.023315 0 15.718018 3.1872559 21.391373 8.860596c5.67334 5.67334 8.860596 13.368057 8.860596 21.391373l0 0c0 16.707703 -13.544266 30.251968 -30.251968 30.251968l0 0c-16.707703 0 -30.251968 -13.544266 -30.251968 -30.251968z" fill-rule="evenodd"/><path fill="#ffffff" fill-opacity="0.5127" d="m341.54855 98.40945l0 0c0 -16.707695 13.544281 -30.251968 30.251984 -30.251968l0 0c8.023315 0 15.718018 3.1872559 21.391357 8.860596c5.67334 5.6733475 8.860596 13.368057 8.860596 21.391373l0 0c0 16.707703 -13.5442505 30.251976 -30.251953 30.251976l0 0c-16.707703 0 -30.251984 -13.544273 -30.251984 -30.251976z" fill-rule="evenodd"/><path fill="#000000" fill-opacity="0.5127" d="m302.85565 413.4134l0 0c0 -16.707703 13.5442505 -30.251984 30.251953 -30.251984l0 0c8.023315 0 15.718048 3.1872559 21.391388 8.860596c5.67334 5.6733704 8.860596 13.3680725 8.860596 21.391388l0 0c0 16.707703 -13.544281 30.251953 -30.251984 30.251953l0 0c-16.707703 0 -30.251953 -13.5442505 -30.251953 -30.251953z" fill-rule="evenodd"/><path fill="#ffffff" fill-opacity="0.5127" d="m312.5643 528.9908l0 0c0 -16.707642 13.544281 -30.251953 30.251984 -30.251953l0 0c8.023315 0 15.718018 3.1872559 21.391357 8.860626c5.67334 5.6733093 8.860596 13.368011 8.860596 21.391327l0 0c0 16.707703 -13.5442505 30.252014 -30.251953 30.252014l0 0c-16.707703 0 -30.251984 -13.544312 -30.251984 -30.252014z" fill-rule="evenodd"/><path fill="#000000" fill-opacity="0.5127" d="m244.36482 471.53937l0 0c0 -16.707703 13.544266 -30.251953 30.251968 -30.251953l0 0c8.023315 0 15.718048 3.1872253 21.391388 8.860596c5.67334 5.67334 8.860596 13.368042 8.860596 21.391357l0 0c0 16.707703 -13.544281 30.251984 -30.251984 30.251984l0 0c-16.707703 0 -30.251968 -13.544281 -30.251968 -30.251984z" fill-rule="evenodd"/><path fill="#000000" fill-opacity="0.5127" d="m528.5827 357.97244l0 0c0 -16.707703 13.5442505 -30.251984 30.251953 -30.251984l0 0c8.023315 0 15.718018 3.1872559 21.391357 8.860596c5.67334 5.6733704 8.860596 13.3680725 8.860596 21.391388l0 0c0 16.707703 -13.5442505 30.251953 -30.251953 30.251953l0 0c-16.707703 0 -30.251953 -13.5442505 -30.251953 -30.251953z" fill-rule="evenodd"/></g></svg>